<svg width="31" height="31" viewBox="0 0 31 31" fill="none" xmlns="http://www.w3.org/2000/svg">
<circle cx="15.5" cy="15.5" r="15.5" fill="#818EFF"/>
<path d="M15.6541 25C14.4038 25 13.2734 24.7786 12.2628 24.3357C11.2694 23.8928 10.4816 23.255 9.89921 22.4224C9.31686 21.5897 9.01713 20.6065 9 19.4727H12.8538C12.9051 20.2345 13.1621 20.8368 13.6245 21.2797C14.1041 21.7226 14.7549 21.9441 15.5771 21.9441C16.4163 21.9441 17.0758 21.7403 17.5553 21.3329C18.0349 20.9077 18.2747 20.3585 18.2747 19.6853C18.2747 19.1361 18.112 18.6844 17.7866 18.3301C17.4611 17.9758 17.0501 17.7012 16.5534 17.5063C16.0738 17.2937 15.4058 17.0634 14.5494 16.8154C13.3847 16.4611 12.4341 16.1156 11.6976 15.779C10.9783 15.4247 10.3531 14.9021 9.82213 14.2112C9.3083 13.5026 9.05138 12.5636 9.05138 11.3944C9.05138 10.296 9.31686 9.33939 9.84783 8.52447C10.3788 7.70956 11.1238 7.08951 12.083 6.66434C13.0422 6.22145 14.1383 6 15.3715 6C17.2213 6 18.72 6.46946 19.8676 7.40839C21.0323 8.3296 21.6746 9.62284 21.7945 11.2881H17.8379C17.8037 10.6503 17.5382 10.1277 17.0415 9.72028C16.5619 9.2951 15.9196 9.08252 15.1146 9.08252C14.4124 9.08252 13.8472 9.26853 13.419 9.64056C13.0079 10.0126 12.8024 10.5529 12.8024 11.2615C12.8024 11.7576 12.9565 12.1739 13.2648 12.5105C13.5903 12.8294 13.9842 13.0951 14.4466 13.3077C14.9262 13.5026 15.5942 13.7329 16.4506 13.9986C17.6153 14.3529 18.5659 14.7072 19.3024 15.0615C20.0389 15.4159 20.6726 15.9473 21.2036 16.6559C21.7345 17.3646 22 18.2946 22 19.4462C22 20.4382 21.7516 21.3594 21.2549 22.2098C20.7582 23.0601 20.0303 23.7422 19.0711 24.2559C18.112 24.752 16.973 25 15.6541 25Z" fill="white"/>
</svg>
